<svg xmlns="http://www.w3.org/2000/svg" fill="none" viewBox="0 0 16 16" color="#c6c6c6" height="16px" width="16px"><path fill="currentColor" d="M6.5,3c-1.933,0 -3.5,1.567 -3.5,3.5c0,1.933 1.567,3.5 3.5,3.5c1.933,0 3.5,-1.567 3.5,-3.5c0,-1.933 -1.567,-3.5 -3.5,-3.5M2,6.5c0.00021,-1.97474 1.28785,-3.71861 3.17506,-4.30004c1.8872,-0.58143 3.93298,0.13546 5.04446,1.7677c1.11148,1.63224 1.02895,3.79841 -0.20351,5.34134l4.338,4.338l-0.707,0.707l-4.338,-4.338c-1.35109,1.07953 -3.2013,1.28928 -4.75975,0.53958c-1.55846,-0.7497 -2.5494,-2.32618 -2.54925,-4.05558"/></svg>
